<svg xmlns="http://www.w3.org/2000/svg" viewBox="0 0 745.38 468.02"><defs><style>.cls-1{fill:#39b082;}.cls-2{fill:#baded4;}</style></defs><g id="Layer_2" data-name="Layer 2"><g id="Layer_1-2" data-name="Layer 1"><path class="cls-1" d="M381.13,13.48l2.1,441.15A13.42,13.42,0,0,0,405.08,465l119.25-96.32a13.55,13.55,0,0,0,4.26-6.07c6.78-19.41,6.48-66.93,14.54-113,9.29-53,60.65-87.78,113.25-76.38l11.56,2.5c41,7.86,77.44-38,77.44-97.48V13.42A13.42,13.42,0,0,0,732,0H596.11A23.37,23.37,0,0,0,584.7,3.07,13.17,13.17,0,0,0,579.25,9L549.18,72.25a13.42,13.42,0,0,1-24.64-.93l-23.4-60.59a13.3,13.3,0,0,0-4.71-6.09A24,24,0,0,0,482.55,0h-88A13.42,13.42,0,0,0,381.13,13.48Z"/><path class="cls-2" d="M364.26,13.48l-2.11,441.15A13.42,13.42,0,0,1,340.3,465L221.06,368.69a13.57,13.57,0,0,1-4.27-6.07c-6.78-19.41-6.47-66.93-14.54-113-9.29-53-60.64-87.78-113.25-76.38l-11.56,2.5C36.44,183.64,0,137.78,0,78.3V13.42A13.42,13.42,0,0,1,13.42,0H149.27a23.35,23.35,0,0,1,11.41,3.07A13.17,13.17,0,0,1,166.13,9L196.2,72.25a13.42,13.42,0,0,0,24.64-.93l23.4-60.59A13.3,13.3,0,0,1,249,4.64,24,24,0,0,1,262.83,0h88A13.43,13.43,0,0,1,364.26,13.48Z"/></g></g></svg>